<svg width="32" height="32" viewBox="0 0 32 32" fill="none" xmlns="http://www.w3.org/2000/svg">
  <!-- Background with gradient -->
  <defs>
    <linearGradient id="logoGradient" x1="0%" y1="0%" x2="100%" y2="100%">
      <stop offset="0%" style="stop-color:#10b981;stop-opacity:1" />
      <stop offset="100%" style="stop-color:#059669;stop-opacity:1" />
    </linearGradient>
    <filter id="shadow" x="-20%" y="-20%" width="140%" height="140%">
      <feDropShadow dx="0" dy="2" stdDeviation="1" flood-color="#000000" flood-opacity="0.15"/>
    </filter>
  </defs>
  
  <!-- Main container -->
  <rect width="32" height="32" rx="8" fill="url(#logoGradient)" filter="url(#shadow)"/>
  
  <!-- Book icon with better design -->
  <path d="M7 9C7 8.44772 7.44772 8 8 8H24C24.5523 8 25 8.44772 25 9V23C25 23.5523 24.5523 24 24 24H8C7.44772 24 7 23.5523 7 23V9Z" fill="white" opacity="0.95"/>
  
  <!-- Book spine with gradient -->
  <rect x="8" y="8" width="3" height="16" fill="#10b981" opacity="0.8"/>
  
  <!-- Book pages with better layering -->
  <rect x="11" y="8" width="14" height="2" fill="#10b981" opacity="0.7"/>
  <rect x="11" y="11" width="14" height="1" fill="#10b981" opacity="0.5"/>
  <rect x="11" y="13" width="14" height="1" fill="#10b981" opacity="0.4"/>
  <rect x="11" y="15" width="14" height="1" fill="#10b981" opacity="0.3"/>
  
  <!-- Audio wave with better design -->
  <path d="M9 20L10 18L11 20L12 18L13 20L14 18L15 20L16 18L17 20L18 18L19 20L20 18L21 20L22 18L23 20" stroke="white" stroke-width="1.5" stroke-linecap="round" stroke-linejoin="round"/>
  
  <!-- Enhanced play button with better contrast -->
  <circle cx="16" cy="16" r="4" fill="white" opacity="0.95"/>
  <path d="M14 12L18 16L14 20V12Z" fill="#10b981"/>
  
  <!-- Small decorative elements -->
  <circle cx="12" cy="12" r="0.5" fill="#10b981" opacity="0.6"/>
  <circle cx="20" cy="12" r="0.5" fill="#10b981" opacity="0.6"/>
</svg> 