<svg width="140" height="32" viewBox="0 0 140 32" fill="none" xmlns="http://www.w3.org/2000/svg">
  <defs>
    <linearGradient id="textGradient" x1="0%" y1="0%" x2="100%" y2="0%">
      <stop offset="0%" style="stop-color:#10b981;stop-opacity:1" />
      <stop offset="100%" style="stop-color:#059669;stop-opacity:1" />
    </linearGradient>
  </defs>
  
  <!-- Book icon -->
  <path d="M2 8C2 7.44772 2.44772 7 3 7H11C11.5523 7 12 7.44772 12 8V16C12 16.5523 11.5523 17 11 17H3C2.44772 17 2 16.5523 2 16V8Z" fill="url(#textGradient)"/>
  <rect x="3" y="7" width="1.5" height="10" fill="#10b981" opacity="0.8"/>
  <rect x="4.5" y="7" width="7.5" height="1" fill="#10b981" opacity="0.6"/>
  <rect x="4.5" y="9" width="7.5" height="0.5" fill="#10b981" opacity="0.4"/>
  <rect x="4.5" y="10.5" width="7.5" height="0.5" fill="#10b981" opacity="0.3"/>
  
  <!-- Audio wave icon -->
  <path d="M16 12L17 10L18 12L19 10L20 12L21 10L22 12L23 10L24 12L25 10L26 12" stroke="url(#textGradient)" stroke-width="1.5" stroke-linecap="round" stroke-linejoin="round"/>
  
  <!-- Bibo text -->
  <text x="30" y="24" font-family="Arial, sans-serif" font-size="24" font-weight="bold" fill="url(#textGradient)">Bibo</text>
  
  <!-- Audiobooks subtitle -->
  <text x="85" y="20" font-family="Arial, sans-serif" font-size="10" font-weight="normal" fill="#6b7280">audiobooks</text>
</svg> 