<svg width="48" height="48" viewBox="0 0 48 48" fill="none" xmlns="http://www.w3.org/2000/svg">
  <!-- Background with gradient -->
  <defs>
    <linearGradient id="logoGradientLarge" x1="0%" y1="0%" x2="100%" y2="100%">
      <stop offset="0%" style="stop-color:#10b981;stop-opacity:1" />
      <stop offset="100%" style="stop-color:#059669;stop-opacity:1" />
    </linearGradient>
    <filter id="shadowLarge" x="-20%" y="-20%" width="140%" height="140%">
      <feDropShadow dx="0" dy="3" stdDeviation="1.5" flood-color="#000000" flood-opacity="0.15"/>
    </filter>
  </defs>
  
  <!-- Main container -->
  <rect width="48" height="48" rx="12" fill="url(#logoGradientLarge)" filter="url(#shadowLarge)"/>
  
  <!-- Book icon -->
  <path d="M12 15C12 14.4477 12.4477 14 13 14H35C35.5523 14 36 14.4477 36 15V33C36 33.5523 35.5523 34 35 34H13C12.4477 34 12 33.5523 12 33V15Z" fill="white" opacity="0.95"/>
  
  <!-- Book spine -->
  <rect x="13" y="14" width="3" height="20" fill="#10b981" opacity="0.8"/>
  
  <!-- Book pages -->
  <rect x="16" y="14" width="20" height="3" fill="#10b981" opacity="0.6"/>
  <rect x="16" y="18" width="20" height="1.5" fill="#10b981" opacity="0.4"/>
  <rect x="16" y="21" width="20" height="1.5" fill="#10b981" opacity="0.3"/>
  
  <!-- Audio wave -->
  <path d="M15 30L17 28L19 30L21 28L23 30L25 28L27 30L29 28L31 30L33 28L35 30L37 28L39 30" stroke="white" stroke-width="2" stroke-linecap="round" stroke-linejoin="round"/>
  
  <!-- Play button -->
  <circle cx="24" cy="24" r="4.5" fill="white" opacity="0.9"/>
  <path d="M21.5 20.5L27.5 24L21.5 27.5V20.5Z" fill="#10b981"/>
</svg> 