<svg width="32" height="32" viewBox="0 0 32 32" fill="none" xmlns="http://www.w3.org/2000/svg">
  <!-- Background with gradient -->
  <defs>
    <linearGradient id="logoGradient" x1="0%" y1="0%" x2="100%" y2="100%">
      <stop offset="0%" style="stop-color:#10b981;stop-opacity:1" />
      <stop offset="100%" style="stop-color:#059669;stop-opacity:1" />
    </linearGradient>
    <filter id="shadow" x="-20%" y="-20%" width="140%" height="140%">
      <feDropShadow dx="0" dy="2" stdDeviation="1" flood-color="#000000" flood-opacity="0.15"/>
    </filter>
  </defs>
  
  <!-- Main container -->
  <rect width="32" height="32" rx="6" fill="url(#logoGradient)" filter="url(#shadow)"/>
  
  <!-- Book icon - simplified and cleaner -->
  <path d="M8 10C8 9.44772 8.44772 9 9 9H23C23.5523 9 24 9.44772 24 10V22C24 22.5523 23.5523 23 23 23H9C8.44772 23 8 22.5523 8 22V10Z" fill="white" opacity="0.9"/>
  
  <!-- Book spine -->
  <rect x="9" y="9" width="2" height="14" fill="#10b981" opacity="0.7"/>
  
  <!-- Book pages - simplified -->
  <rect x="11" y="9" width="13" height="1.5" fill="#10b981" opacity="0.5"/>
  <rect x="11" y="11" width="13" height="1" fill="#10b981" opacity="0.3"/>
  <rect x="11" y="13" width="13" height="1" fill="#10b981" opacity="0.2"/>
  
  <!-- Audio wave - simplified and more prominent -->
  <path d="M10 20L11 18L12 20L13 18L14 20L15 18L16 20L17 18L18 20L19 18L20 20L21 18L22 20" stroke="white" stroke-width="2" stroke-linecap="round" stroke-linejoin="round"/>
  
  <!-- Play button - larger and more prominent -->
  <circle cx="16" cy="16" r="5" fill="white" opacity="0.95"/>
  <path d="M13.5 12L19.5 16L13.5 20V12Z" fill="#10b981"/>
</svg> 