<svg width="32" height="32" viewBox="0 0 32 32" fill="none" xmlns="http://www.w3.org/2000/svg">
  <defs>
    <filter id="glow">
      <feGaussianBlur stdDeviation="1" result="coloredBlur"/>
      <feMerge> 
        <feMergeNode in="coloredBlur"/>
        <feMergeNode in="SourceGraphic"/>
      </feMerge>
    </filter>
  </defs>
  
  <!-- Background circle -->
  <circle cx="16" cy="16" r="15" fill="none" stroke="#374151" stroke-width="0.5"/>
  
  <!-- Headphones band -->
  <path d="M8 12 Q16 8 24 12" stroke="#6B7280" stroke-width="2" fill="none" stroke-linecap="round"/>
  
  <!-- Left earcup -->
  <rect x="6" y="12" width="4" height="6" rx="2" fill="#6B7280"/>
  
  <!-- Right earcup -->
  <rect x="22" y="12" width="4" height="6" rx="2" fill="#6B7280"/>
  
  <!-- Letter B -->
  <path d="M12 6 L12 26 L18 26 Q22 26 22 22 Q22 18 18 18 L12 18 L12 14 L18 14 Q20 14 20 12 Q20 10 18 10 L12 10 Z" fill="#6B7280"/>
  
  <!-- B inner details -->
  <path d="M14 8 L16 8 Q17 8 17 9 Q17 10 16 10 L14 10 Z" fill="#374151"/>
  <path d="M14 16 L18 16 Q19 16 19 17 Q19 18 18 18 L14 18 Z" fill="#374151"/>
  <path d="M14 22 L18 22 Q19 22 19 23 Q19 24 18 24 L14 24 Z" fill="#374151"/>
</svg> 