<?xml version="1.0" encoding="UTF-8"?>
<svg width="32" height="32" viewBox="0 0 32 32" fill="none" xmlns="http://www.w3.org/2000/svg">
  <!-- Background with gradient -->
  <defs>
    <linearGradient id="faviconGradient" x1="0%" y1="0%" x2="100%" y2="100%">
      <stop offset="0%" style="stop-color:#10b981;stop-opacity:1" />
      <stop offset="100%" style="stop-color:#059669;stop-opacity:1" />
    </linearGradient>
  </defs>
  
  <!-- Main container -->
  <rect width="32" height="32" rx="8" fill="url(#faviconGradient)"/>
  
  <!-- Book icon -->
  <path d="M8 10C8 9.44772 8.44772 9 9 9H23C23.5523 9 24 9.44772 24 10V22C24 22.5523 23.5523 23 23 23H9C8.44772 23 8 22.5523 8 22V10Z" fill="white" opacity="0.95"/>
  
  <!-- Book spine -->
  <rect x="9" y="9" width="2" height="14" fill="#10b981" opacity="0.8"/>
  
  <!-- Book pages -->
  <rect x="11" y="9" width="13" height="2" fill="#10b981" opacity="0.6"/>
  <rect x="11" y="12" width="13" height="1" fill="#10b981" opacity="0.4"/>
  <rect x="11" y="14" width="13" height="1" fill="#10b981" opacity="0.3"/>
  
  <!-- Audio wave -->
  <path d="M10 20L11 19L12 20L13 19L14 20L15 19L16 20L17 19L18 20L19 19L20 20L21 19L22 20" stroke="white" stroke-width="1.5" stroke-linecap="round" stroke-linejoin="round"/>
  
  <!-- Play button -->
  <circle cx="16" cy="16" r="3" fill="white" opacity="0.9"/>
  <path d="M14.5 13.5L18.5 16L14.5 18.5V13.5Z" fill="#10b981"/>
</svg> 