<svg width="100" height="100" viewBox="0 0 100 100" fill="none" xmlns="http://www.w3.org/2000/svg">
  <!-- Background circle -->
  <circle cx="50" cy="50" r="50" fill="#f3f4f6"/>
  
  <!-- Hair -->
  <path d="M25 35 Q50 20 75 35 L75 45 Q50 30 25 45 Z" fill="#8b5a2b"/>
  
  <!-- Face -->
  <circle cx="50" cy="50" r="20" fill="#fbbf24"/>
  
  <!-- Glasses -->
  <circle cx="40" cy="48" r="8" fill="none" stroke="#374151" stroke-width="2"/>
  <circle cx="60" cy="48" r="8" fill="none" stroke="#374151" stroke-width="2"/>
  <line x1="48" y1="48" x2="52" y2="48" stroke="#374151" stroke-width="2"/>
  
  <!-- Eyes -->
  <circle cx="40" cy="48" r="2" fill="#374151"/>
  <circle cx="60" cy="48" r="2" fill="#374151"/>
  
  <!-- Nose -->
  <path d="M50 50 Q52 52 50 54" stroke="#d97706" stroke-width="1" fill="none"/>
  
  <!-- Mouth -->
  <path d="M45 58 Q50 60 55 58" stroke="#d97706" stroke-width="1.5" fill="none"/>
  
  <!-- Book icon -->
  <rect x="70" y="30" width="8" height="10" rx="1" fill="#ef4444"/>
  <rect x="72" y="32" width="4" height="1" fill="white"/>
  <rect x="72" y="34" width="4" height="1" fill="white"/>
  <rect x="72" y="36" width="4" height="1" fill="white"/>
</svg>
