<svg width="100" height="100" viewBox="0 0 100 100" fill="none" xmlns="http://www.w3.org/2000/svg">
  <!-- Background circle -->
  <circle cx="50" cy="50" r="50" fill="#e5e7eb"/>
  
  <!-- Hair -->
  <path d="M25 35 Q50 15 75 35 L75 50 Q50 30 25 50 Z" fill="#1f2937"/>
  
  <!-- Face -->
  <circle cx="50" cy="55" r="18" fill="#fbbf24"/>
  
  <!-- Eyes -->
  <circle cx="43" cy="52" r="2.5" fill="#374151"/>
  <circle cx="57" cy="52" r="2.5" fill="#374151"/>
  
  <!-- Nose -->
  <path d="M50 55 Q52 57 50 59" stroke="#d97706" stroke-width="1" fill="none"/>
  
  <!-- Mouth -->
  <path d="M45 62 Q50 64 55 62" stroke="#d97706" stroke-width="1.5" fill="none"/>
  
  <!-- Beard -->
  <path d="M35 60 Q50 65 65 60" stroke="#1f2937" stroke-width="2" fill="none"/>
  
  <!-- Book icon -->
  <rect x="70" y="25" width="8" height="10" rx="1" fill="#3b82f6"/>
  <rect x="72" y="27" width="4" height="1" fill="white"/>
  <rect x="72" y="29" width="4" height="1" fill="white"/>
  <rect x="72" y="31" width="4" height="1" fill="white"/>
</svg>
